<?xml version="1.0" standalone="no"?>
<!DOCTYPE svg PUBLIC "-//W3C//DTD SVG 20010904//EN"
 "http://www.w3.org/TR/2001/REC-SVG-20010904/DTD/svg10.dtd">
<svg version="1.0" xmlns="http://www.w3.org/2000/svg"
 width="330.000000pt" height="330.000000pt" viewBox="0 0 330.000000 330.000000"
 preserveAspectRatio="xMidYMid meet">
<metadata>
Created by potrace 1.11, written by Peter Selinger 2001-2013
</metadata>
<g transform="translate(0.000000,330.000000) scale(0.100000,-0.100000)"
fill="#000000" stroke="none">
<path d="M1574 3286 c-41 -18 -1299 -771 -1343 -803 -18 -14 -44 -49 -57 -77
l-24 -51 0 -760 c0 -719 1 -762 19 -800 10 -22 34 -54 52 -71 19 -18 325 -182
699 -375 772 -398 717 -378 860 -309 47 23 351 179 675 347 640 331 659 343
684 435 9 32 11 238 9 799 l-3 756 -30 49 c-29 47 -54 63 -665 431 -349 211
-662 396 -694 413 -66 33 -129 39 -182 16z m-239 -1161 c170 -157 311 -285
315 -285 3 0 145 128 314 285 170 157 313 285 319 285 14 0 400 -230 409 -244
10 -14 10 -1158 0 -1172 -4 -7 -121 -69 -260 -138 -201 -101 -257 -125 -268
-115 -11 9 -14 85 -16 422 -3 379 -4 412 -20 415 -11 2 -99 -70 -240 -197
-122 -111 -229 -201 -238 -201 -9 0 -115 90 -237 200 -138 125 -229 200 -242
200 -21 0 -21 -1 -21 -414 0 -344 -2 -416 -14 -425 -11 -10 -64 13 -258 110
-133 66 -251 128 -260 137 -17 14 -18 55 -18 593 0 450 3 581 13 590 19 18
391 238 403 239 6 0 149 -128 319 -285z"/>
</g>
</svg>
